<svg width="36" height="61" viewBox="0 0 36 61" fill="none" xmlns="http://www.w3.org/2000/svg">
<path d="M0.400024 22.5V53.5C0.400024 57.3 3.50001 60.3 7.20001 60.3H28.6C32.4 60.3 35.4 57.2 35.4 53.5V22.5C35.4 20.1 34.1 17.8 32 16.6L21.3 10.4C19.2 9.2 16.6 9.2 14.5 10.4L3.79999 16.6C1.69999 17.8 0.400024 20.1 0.400024 22.5Z" fill="url(#paint0_linear_2_4223)"/>
<path d="M17.9 37.1999V60.1999H28.7C32.5 60.1999 35.5 57.1 35.5 53.4V22.4C35.5 20 34.2 17.7 32.1 16.5L21.4 10.3C19.3 9.10002 16.7 9.10002 14.6 10.3L5.79999 15.4L11.1 20.6999C15.5 25.0999 17.9 30.9999 17.9 37.1999Z" fill="url(#paint1_linear_2_4223)"/>
<path d="M18 24.1C20.0987 24.1 21.8 22.3987 21.8 20.3C21.8 18.2014 20.0987 16.5 18 16.5C15.9013 16.5 14.2 18.2014 14.2 20.3C14.2 22.3987 15.9013 24.1 18 24.1Z" fill="white"/>
<path d="M15.8 1.19993V20.1999C15.8 21.1999 16.4 22.2 17.4 22.4C18.9 22.8 20.2 21.7 20.2 20.3V1.19993C19 -7.32541e-05 17 -7.32541e-05 15.8 1.19993Z" fill="url(#paint2_linear_2_4223)"/>
<path d="M19.5 38.3H16.5C15.4 38.3 14.5 37.4 14.5 36.3V35.2C14.5 34.1 15.4 33.2 16.5 33.2H19.5C20.6 33.2 21.5 34.1 21.5 35.2C21.5 36.3 22.5 37.4 23.7 37.4C24.9 37.4 25.9 36.4 25.9 35.2C25.9 31.9 23.4 29.1 20.1 28.8C19.9 27.8 19 27.1 17.9 27.1C16.8 27.1 16 27.8 15.7 28.8C12.5 29.1 9.90002 31.9 9.90002 35.2V36.3C9.90002 39.8 12.8 42.7 16.3 42.7H19.3C20.4 42.7 21.3 43.6 21.3 44.7V45.8C21.3 46.9 20.4 47.8 19.3 47.8H16.3C15.2 47.8 14.3 46.9 14.3 45.8C14.3 44.6 13.3 43.6 12.1 43.6C10.9 43.6 9.90002 44.6 9.90002 45.8C9.90002 49.1 12.4 51.9 15.7 52.2C15.9 53.2 16.8 53.9 17.9 53.9C19 53.9 19.8 53.2 20.1 52.2C23.3 51.9 25.9 49.1 25.9 45.8V44.7C25.9 41.2 23 38.3 19.5 38.3Z" fill="url(#paint3_linear_2_4223)"/>
<defs>
<linearGradient id="paint0_linear_2_4223" x1="18" y1="72.4" x2="18" y2="-8.20001" gradientUnits="userSpaceOnUse">
<stop stop-color="#C5A25D"/>
<stop offset="1" stop-color="#897340"/>
</linearGradient>
<linearGradient id="paint1_linear_2_4223" x1="25.3801" y1="97.1987" x2="18.804" y2="-12.0491" gradientUnits="userSpaceOnUse">
<stop stop-color="#C5A25D"/>
<stop offset="1" stop-color="#897340"/>
</linearGradient>
<linearGradient id="paint2_linear_2_4223" x1="18.0262" y1="15.033" x2="17.9555" y2="-38.9194" gradientUnits="userSpaceOnUse">
<stop stop-color="#005363"/>
<stop offset="1" stop-color="#132F57"/>
</linearGradient>
<linearGradient id="paint3_linear_2_4223" x1="18" y1="58.9" x2="18" y2="-15.5001" gradientUnits="userSpaceOnUse">
<stop stop-color="#005363"/>
<stop offset="1" stop-color="#132F57"/>
</linearGradient>
</defs>
</svg>
