<svg width="60" height="61" viewBox="0 0 60 61" fill="none" xmlns="http://www.w3.org/2000/svg">
<path d="M50.5 10.5H9.5C7.01472 10.5 5 12.5147 5 15V55.7C5 58.1852 7.01472 60.2 9.5 60.2H50.5C52.9853 60.2 55 58.1852 55 55.7V15C55 12.5147 52.9853 10.5 50.5 10.5Z" fill="url(#paint0_linear_2_4491)"/>
<path d="M41 23.9H19.1V60.2H41V23.9Z" fill="url(#paint1_linear_2_4491)"/>
<path d="M34 56.2C33.9 56.2 33.8 56.2 33.7 56.2C32.7 56.2 31.8 55.5 31.8 54.4V43.6H28.1V54.4C28.1 55.4 27.2 56.2 26.2 56.2C26.1 56.2 26 56.2 25.9 56.2C23.7 56.2 21.9 58 21.9 60.2H38.1C38.1 58 36.3 56.2 34.1 56.2H34Z" fill="url(#paint2_linear_2_4491)"/>
<path d="M0.0999756 60.2C0.0999756 56.7 2.90002 53.9 6.40002 53.9C9.90002 53.9 12.7 56.7 12.7 60.2" fill="url(#paint3_linear_2_4491)"/>
<path d="M5.40002 60.2C5.40002 56.7 8.30005 53.8 11.8 53.8C15.3 53.8 18.2 56.7 18.2 60.2" fill="url(#paint4_linear_2_4491)"/>
<path d="M8.30005 60.2C8.30005 58 10.1 56.2 12.3 56.2C14.5 56.2 16.3 58 16.3 60.2" fill="url(#paint5_linear_2_4491)"/>
<path d="M16.4 60.2C16.4 57.1 18.9 54.7 21.9 54.7C24.9 54.7 27.4 57.2 27.4 60.2" fill="url(#paint6_linear_2_4491)"/>
<path d="M12 45.4C12 46.4 11.2 47.2 10.2 47.2C9.19995 47.2 8.40002 46.4 8.40002 45.4C8.40002 44.4 9.19995 43.6 10.2 43.6C11.2 43.6 12 44.4 12 45.4Z" fill="url(#paint7_linear_2_4491)"/>
<path d="M14.4 51C14.8971 51 15.3 50.597 15.3 50.1C15.3 49.6029 14.8971 49.2 14.4 49.2C13.903 49.2 13.5 49.6029 13.5 50.1C13.5 50.597 13.903 51 14.4 51Z" fill="url(#paint8_linear_2_4491)"/>
<path d="M8.30005 49.8C8.30005 50.1 7.99995 50.4 7.69995 50.4C7.39995 50.4 7.09998 50.1 7.09998 49.8C7.09998 49.5 7.39995 49.2 7.69995 49.2C7.99995 49.2 8.30005 49.5 8.30005 49.8Z" fill="url(#paint9_linear_2_4491)"/>
<path d="M15.9 43.9C15.9 44.1 15.7 44.2 15.6 44.2C15.5 44.2 15.3 44 15.3 43.9C15.3 43.8 15.5 43.6 15.6 43.6C15.7 43.6 15.9 43.8 15.9 43.9Z" fill="url(#paint10_linear_2_4491)"/>
<path d="M59.9 60.2C59.9 56.7 57.1 53.9 53.6 53.9C50.1 53.9 47.3 56.7 47.3 60.2" fill="url(#paint11_linear_2_4491)"/>
<path d="M54.6 60.2C54.6 56.7 51.7 53.8 48.2 53.8C44.7 53.8 41.8 56.7 41.8 60.2" fill="url(#paint12_linear_2_4491)"/>
<path d="M51.7 60.2C51.7 58 49.9 56.2 47.7 56.2C45.5 56.2 43.7 58 43.7 60.2" fill="url(#paint13_linear_2_4491)"/>
<path d="M43.6 60.2C43.6 57.1 41.1 54.7 38.1 54.7C35.1 54.7 32.6 57.2 32.6 60.2" fill="url(#paint14_linear_2_4491)"/>
<path d="M48 45.4C48 46.4 48.8 47.2 49.8 47.2C50.8 47.2 51.6 46.4 51.6 45.4C51.6 44.4 50.8 43.6 49.8 43.6C48.8 43.6 48 44.4 48 45.4Z" fill="url(#paint15_linear_2_4491)"/>
<path d="M45.6 51C46.097 51 46.5 50.597 46.5 50.1C46.5 49.6029 46.097 49.2 45.6 49.2C45.1029 49.2 44.7 49.6029 44.7 50.1C44.7 50.597 45.1029 51 45.6 51Z" fill="url(#paint16_linear_2_4491)"/>
<path d="M51.7 49.8C51.7 50.1 52 50.4 52.3 50.4C52.6 50.4 52.9 50.1 52.9 49.8C52.9 49.5 52.6 49.2 52.3 49.2C52 49.2 51.7 49.5 51.7 49.8Z" fill="url(#paint17_linear_2_4491)"/>
<path d="M44.1 43.9C44.1 44.1 44.3 44.2 44.4 44.2C44.5 44.2 44.7 44 44.7 43.9C44.7 43.8 44.5 43.6 44.4 43.6C44.3 43.6 44.1 43.8 44.1 43.9Z" fill="url(#paint18_linear_2_4491)"/>
<path d="M23.6 35L18.8001 37.6C17.1001 38.5 15.9001 40.1 15.4001 41.9L15.2 42.5C14.9 43.8 16.3001 44.8 17.4001 44L18.9001 43C19.5001 42.6 20.2001 42.4 20.9001 42.4H27.2" fill="url(#paint19_linear_2_4491)"/>
<path d="M36.4 35L41.2 37.6C42.9 38.5 44.1 40.1 44.6 41.9L44.8 42.5C45.1 43.8 43.7 44.8 42.6 44L41.1 43C40.5 42.6 39.8 42.4 39.1 42.4H32.8" fill="url(#paint20_linear_2_4491)"/>
<path d="M30.9 0.499951C30.4 0.0999512 29.6 0.0999512 29.1 0.499951C23.1 5.19995 19.1 13.7999 19.1 23.5999C19.1 33.3999 21.8 38.7999 26 43.6999C26.3 43.9999 26.7 44.1999 27.1 44.1999C28.1 44.1999 29 44.1999 30 44.1999C31 44.1999 31.9 44.1999 32.9 44.1999C33.3 44.1999 33.7 43.9999 34 43.6999C38.2 38.7999 40.9 31.5999 40.9 23.5999C40.9 15.5999 36.9 5.19995 30.9 0.499951Z" fill="url(#paint21_linear_2_4491)"/>
<path d="M34.6 19.3H25.3V42.9C25.5 43.2 25.7 43.4 25.9 43.7C26.2 44 26.6 44.2 27 44.2C28 44.2 28.9 44.2 29.9 44.2C30.9 44.2 31.8 44.2 32.8 44.2C33.2 44.2 33.6 44 33.9 43.7C34.1 43.4 34.3 43.2 34.5 42.9V19.3H34.6Z" fill="url(#paint22_linear_2_4491)"/>
<path d="M34.6 19.3C34.6 21.9 32.5 23.9 30 23.9C27.5 23.9 25.4 21.8 25.4 19.3C25.4 16.8 27.5 14.7 30 14.7C32.5 14.7 34.6 16.8 34.6 19.3Z" fill="url(#paint23_linear_2_4491)"/>
<path d="M32.8 19.3C32.8 20.8 31.6 22.1 30 22.1C28.4 22.1 27.2 20.9 27.2 19.3C27.2 17.7 28.4 16.5 30 16.5C31.6 16.5 32.8 17.7 32.8 19.3Z" fill="url(#paint24_linear_2_4491)"/>
<path d="M26 9.90002C26 10.5 25.5 11 24.9 11C24.3 11 23.8 10.5 23.8 9.90002C23.8 9.30002 24.3 8.80005 24.9 8.80005C25.5 8.80005 26 9.30002 26 9.90002Z" fill="#8AA9AC"/>
<path d="M26.7 7.69995C26.7 8.09995 26.4 8.30005 26.1 8.30005C25.8 8.30005 25.5 7.99995 25.5 7.69995C25.5 7.39995 25.8 7.09998 26.1 7.09998C26.4 7.09998 26.7 7.39995 26.7 7.69995Z" fill="#8AA9AC"/>
<path d="M23.9 12.1C23.9 12.1 23.9 12.3 23.7 12.3C23.5 12.3 23.5 12.3 23.5 12.1C23.5 11.9 23.5 11.9 23.7 11.9C23.9 11.9 23.9 11.9 23.9 12.1Z" fill="#8AA9AC"/>
<path d="M30 46.1C28.9 46.1 28.1 45.3 27.9 44.3L27.1999 38.5C26.9999 37 28.2 35.6 29.8 35.6H30.1999C31.6999 35.6 32.9 36.9 32.8 38.5L32.0999 44.3C31.9999 45.3 31.1 46.1 30 46.1Z" fill="url(#paint25_linear_2_4491)"/>
<defs>
<linearGradient id="paint0_linear_2_4491" x1="30" y1="63.9999" x2="30" y2="7" gradientUnits="userSpaceOnUse">
<stop stop-color="#C5A25D"/>
<stop offset="1" stop-color="#897340"/>
</linearGradient>
<linearGradient id="paint1_linear_2_4491" x1="30" y1="72.4999" x2="30" y2="25.7" gradientUnits="userSpaceOnUse">
<stop stop-color="#C5A25D"/>
<stop offset="1" stop-color="#897340"/>
</linearGradient>
<linearGradient id="paint2_linear_2_4491" x1="30" y1="66.7999" x2="30" y2="46.9" gradientUnits="userSpaceOnUse">
<stop stop-color="white"/>
<stop offset="0.5" stop-color="#CBE0E5"/>
<stop offset="1" stop-color="#8E9FB9"/>
</linearGradient>
<linearGradient id="paint3_linear_2_4491" x1="6.29996" y1="61.9999" x2="6.29996" y2="51.1001" gradientUnits="userSpaceOnUse">
<stop stop-color="white"/>
<stop offset="0.5" stop-color="#CBE0E5"/>
<stop offset="1" stop-color="#8E9FB9"/>
</linearGradient>
<linearGradient id="paint4_linear_2_4491" x1="11.8" y1="61.9999" x2="11.8" y2="50.8001" gradientUnits="userSpaceOnUse">
<stop stop-color="white"/>
<stop offset="0.5" stop-color="#CBE0E5"/>
<stop offset="1" stop-color="#8E9FB9"/>
</linearGradient>
<linearGradient id="paint5_linear_2_4491" x1="12.3" y1="61.4" x2="12.3" y2="54.3" gradientUnits="userSpaceOnUse">
<stop stop-color="white"/>
<stop offset="0.5" stop-color="#CBE0E5"/>
<stop offset="1" stop-color="#8E9FB9"/>
</linearGradient>
<linearGradient id="paint6_linear_2_4491" x1="21.9" y1="61.8" x2="21.9" y2="52.1" gradientUnits="userSpaceOnUse">
<stop stop-color="white"/>
<stop offset="0.5" stop-color="#CBE0E5"/>
<stop offset="1" stop-color="#8E9FB9"/>
</linearGradient>
<linearGradient id="paint7_linear_2_4491" x1="10.1" y1="52.4999" x2="10.1" y2="31.2001" gradientUnits="userSpaceOnUse">
<stop stop-color="white"/>
<stop offset="0.5" stop-color="#CBE0E5"/>
<stop offset="1" stop-color="#8E9FB9"/>
</linearGradient>
<linearGradient id="paint8_linear_2_4491" x1="14.4" y1="53.6001" x2="14.4" y2="42.8998" gradientUnits="userSpaceOnUse">
<stop stop-color="white"/>
<stop offset="0.5" stop-color="#CBE0E5"/>
<stop offset="1" stop-color="#8E9FB9"/>
</linearGradient>
<linearGradient id="paint9_linear_2_4491" x1="7.70001" y1="52.0001" x2="7.70001" y2="45.0997" gradientUnits="userSpaceOnUse">
<stop stop-color="white"/>
<stop offset="0.5" stop-color="#CBE0E5"/>
<stop offset="1" stop-color="#8E9FB9"/>
</linearGradient>
<linearGradient id="paint10_linear_2_4491" x1="15.6" y1="45.0999" x2="15.6" y2="41.3001" gradientUnits="userSpaceOnUse">
<stop stop-color="white"/>
<stop offset="0.5" stop-color="#CBE0E5"/>
<stop offset="1" stop-color="#8E9FB9"/>
</linearGradient>
<linearGradient id="paint11_linear_2_4491" x1="53.7" y1="61.9999" x2="53.7" y2="51.1001" gradientUnits="userSpaceOnUse">
<stop stop-color="white"/>
<stop offset="0.5" stop-color="#CBE0E5"/>
<stop offset="1" stop-color="#8E9FB9"/>
</linearGradient>
<linearGradient id="paint12_linear_2_4491" x1="48.2" y1="61.9999" x2="48.2" y2="50.8001" gradientUnits="userSpaceOnUse">
<stop stop-color="white"/>
<stop offset="0.5" stop-color="#CBE0E5"/>
<stop offset="1" stop-color="#8E9FB9"/>
</linearGradient>
<linearGradient id="paint13_linear_2_4491" x1="47.7" y1="61.4" x2="47.7" y2="54.3" gradientUnits="userSpaceOnUse">
<stop stop-color="white"/>
<stop offset="0.5" stop-color="#CBE0E5"/>
<stop offset="1" stop-color="#8E9FB9"/>
</linearGradient>
<linearGradient id="paint14_linear_2_4491" x1="38.1" y1="61.8" x2="38.1" y2="52.1" gradientUnits="userSpaceOnUse">
<stop stop-color="white"/>
<stop offset="0.5" stop-color="#CBE0E5"/>
<stop offset="1" stop-color="#8E9FB9"/>
</linearGradient>
<linearGradient id="paint15_linear_2_4491" x1="49.9" y1="52.4999" x2="49.9" y2="31.2001" gradientUnits="userSpaceOnUse">
<stop stop-color="white"/>
<stop offset="0.5" stop-color="#CBE0E5"/>
<stop offset="1" stop-color="#8E9FB9"/>
</linearGradient>
<linearGradient id="paint16_linear_2_4491" x1="45.6" y1="53.6001" x2="45.6" y2="42.8998" gradientUnits="userSpaceOnUse">
<stop stop-color="white"/>
<stop offset="0.5" stop-color="#CBE0E5"/>
<stop offset="1" stop-color="#8E9FB9"/>
</linearGradient>
<linearGradient id="paint17_linear_2_4491" x1="52.3" y1="52.0001" x2="52.3" y2="45.0997" gradientUnits="userSpaceOnUse">
<stop stop-color="white"/>
<stop offset="0.5" stop-color="#CBE0E5"/>
<stop offset="1" stop-color="#8E9FB9"/>
</linearGradient>
<linearGradient id="paint18_linear_2_4491" x1="44.4" y1="45.0999" x2="44.4" y2="41.3001" gradientUnits="userSpaceOnUse">
<stop stop-color="white"/>
<stop offset="0.5" stop-color="#CBE0E5"/>
<stop offset="1" stop-color="#8E9FB9"/>
</linearGradient>
<linearGradient id="paint19_linear_2_4491" x1="21.2" y1="59.2" x2="21.2" y2="-2.3" gradientUnits="userSpaceOnUse">
<stop stop-color="#005363"/>
<stop offset="1" stop-color="#132F57"/>
</linearGradient>
<linearGradient id="paint20_linear_2_4491" x1="38.7" y1="59.2" x2="38.7" y2="-2.3" gradientUnits="userSpaceOnUse">
<stop stop-color="#005363"/>
<stop offset="1" stop-color="#132F57"/>
</linearGradient>
<linearGradient id="paint21_linear_2_4491" x1="30" y1="67.6999" x2="30" y2="-30.1" gradientUnits="userSpaceOnUse">
<stop stop-color="#007473"/>
<stop offset="1" stop-color="#008989"/>
</linearGradient>
<linearGradient id="paint22_linear_2_4491" x1="30" y1="58.2999" x2="30" y2="9.50009" gradientUnits="userSpaceOnUse">
<stop stop-color="#007473"/>
<stop offset="1" stop-color="#008989"/>
</linearGradient>
<linearGradient id="paint23_linear_2_4491" x1="30" y1="26.3" x2="30" y2="2.59985" gradientUnits="userSpaceOnUse">
<stop stop-color="white"/>
<stop offset="0.5" stop-color="#CBE0E5"/>
<stop offset="1" stop-color="#8E9FB9"/>
</linearGradient>
<linearGradient id="paint24_linear_2_4491" x1="30" y1="15.2" x2="30" y2="10.1" gradientUnits="userSpaceOnUse">
<stop stop-color="white"/>
<stop offset="0.5" stop-color="#CBE0E5"/>
<stop offset="1" stop-color="#8E9FB9"/>
</linearGradient>
<linearGradient id="paint25_linear_2_4491" x1="30" y1="63.1" x2="30" y2="-6.90002" gradientUnits="userSpaceOnUse">
<stop stop-color="#005363"/>
<stop offset="1" stop-color="#132F57"/>
</linearGradient>
</defs>
</svg>
