<svg width="56" height="61" viewBox="0 0 56 61" fill="none" xmlns="http://www.w3.org/2000/svg">
<path d="M36.6 43.7998H55.9V53.9998C55.9 57.4998 53.1 60.2998 49.6 60.2998H36.7V43.7998H36.6Z" fill="url(#paint0_linear_2_3877)"/>
<path d="M40.6 0.199707H18.6C17.7 0.199707 16.9 0.499707 16.3 1.19971L1.09998 16.3998C0.499976 16.9998 0.0999756 17.8997 0.0999756 18.6997V53.4998C0.0999756 57.1998 3.10001 60.0997 6.70001 60.0997H40.6C44.3 60.0997 47.2 57.0998 47.2 53.4998V6.7998C47.2 3.0998 44.2 0.199707 40.6 0.199707Z" fill="url(#paint1_linear_2_3877)"/>
<path d="M21.6 0.199829H18.7C17.8 0.199829 17 0.499829 16.4 1.19983L9.5 8.09985L1.20001 16.3999C0.600012 16.9999 0.200012 17.8998 0.200012 18.6998V53.4999C0.200012 57.1999 3.19999 60.0999 6.79999 60.0999H17.3V19.6998C17.3 18.1998 17.9 16.6999 18.8 15.4999C20.6 13.0999 21.6 10.0999 21.6 6.8999V0.0998535V0.199829Z" fill="url(#paint2_linear_2_3877)"/>
<path d="M8.20001 17.4C13.2 17.4 17.3 13.3 17.3 8.30005V0.5C16.9 0.7 16.6 0.899951 16.3 1.19995L1.09998 16.4C0.799976 16.7 0.600024 17 0.400024 17.4H8.20001Z" fill="url(#paint3_linear_2_3877)"/>
<path d="M17.3 28.1C17.3 27.5 16.8 27 16.2 27H9.79999C9.19999 27 8.70001 27.5 8.70001 28.1C8.70001 28.7 9.19999 29.2 9.79999 29.2H16.2C16.8 29.2 17.3 28.7 17.3 28.1Z" fill="url(#paint4_linear_2_3877)"/>
<path d="M37.6 27H20.5C19.9 27 19.4 27.5 19.4 28.1C19.4 28.7 19.9 29.2 20.5 29.2H37.6C38.2 29.2 38.7 28.7 38.7 28.1C38.7 27.5 38.2 27 37.6 27Z" fill="url(#paint5_linear_2_3877)"/>
<path d="M37.6 35.6001H33.3C32.7 35.6001 32.2 36.1001 32.2 36.7001C32.2 37.3001 32.7 37.8002 33.3 37.8002H37.6C38.2 37.8002 38.7 37.3001 38.7 36.7001C38.7 36.1001 38.2 35.6001 37.6 35.6001Z" fill="url(#paint6_linear_2_3877)"/>
<path d="M30.1 36.7001C30.1 36.1001 29.6 35.6001 29 35.6001H9.70001C9.10001 35.6001 8.59998 36.1001 8.59998 36.7001C8.59998 37.3001 9.10001 37.8002 9.70001 37.8002H29C29.6 37.8002 30.1 37.3001 30.1 36.7001Z" fill="url(#paint7_linear_2_3877)"/>
<path d="M23.7 45.2001C23.7 44.6001 23.2 44.1001 22.6 44.1001H9.70001C9.10001 44.1001 8.59998 44.6001 8.59998 45.2001C8.59998 45.8001 9.10001 46.3002 9.70001 46.3002H22.6C23.2 46.3002 23.7 45.8001 23.7 45.2001Z" fill="url(#paint8_linear_2_3877)"/>
<path d="M37.6 44.2002H26.9C26.3 44.2002 25.8 44.7003 25.8 45.3003C25.8 45.9003 26.3 46.4003 26.9 46.4003H37.6C38.2 46.4003 38.7 45.9003 38.7 45.3003C38.7 44.7003 38.2 44.2002 37.6 44.2002Z" fill="url(#paint9_linear_2_3877)"/>
<path d="M17.3 26.9999C17.3 26.3999 16.8 25.8999 16.2 25.8999H9.79999C9.19999 25.8999 8.70001 26.3999 8.70001 26.9999C8.70001 27.5999 9.19999 28.0999 9.79999 28.0999H16.2C16.8 28.0999 17.3 27.5999 17.3 26.9999Z" fill="url(#paint10_linear_2_3877)"/>
<path d="M37.6 26H20.5C19.9 26 19.4 26.5 19.4 27.1C19.4 27.7 19.9 28.2 20.5 28.2H37.6C38.2 28.2 38.7 27.7 38.7 27.1C38.7 26.5 38.2 26 37.6 26Z" fill="url(#paint11_linear_2_3877)"/>
<path d="M37.6 34.5H33.3C32.7 34.5 32.2 35 32.2 35.6C32.2 36.2 32.7 36.7 33.3 36.7H37.6C38.2 36.7 38.7 36.2 38.7 35.6C38.7 35 38.2 34.5 37.6 34.5Z" fill="url(#paint12_linear_2_3877)"/>
<path d="M30.1 35.6C30.1 35 29.6 34.5 29 34.5H9.70001C9.10001 34.5 8.59998 35 8.59998 35.6C8.59998 36.2 9.10001 36.7 9.70001 36.7H29C29.6 36.7 30.1 36.2 30.1 35.6Z" fill="url(#paint13_linear_2_3877)"/>
<path d="M23.7 44.1998C23.7 43.5998 23.2 43.0999 22.6 43.0999H9.70001C9.10001 43.0999 8.59998 43.5998 8.59998 44.1998C8.59998 44.7998 9.10001 45.2999 9.70001 45.2999H22.6C23.2 45.2999 23.7 44.7998 23.7 44.1998Z" fill="url(#paint14_linear_2_3877)"/>
<path d="M37.6 43.0999H26.9C26.3 43.0999 25.8 43.5998 25.8 44.1998C25.8 44.7998 26.3 45.2999 26.9 45.2999H37.6C38.2 45.2999 38.7 44.7998 38.7 44.1998C38.7 43.5998 38.2 43.0999 37.6 43.0999Z" fill="url(#paint15_linear_2_3877)"/>
<path d="M50 21.6997H17.3C14.9 21.6997 12.9 23.6997 12.9 26.0997V45.1997C12.9 47.5997 14.9 49.5997 17.3 49.5997H50C52.7 49.5997 55.1 51.3998 55.8 53.8998V27.5997C55.8 24.3997 53.2 21.7998 50 21.7998V21.6997Z" fill="url(#paint16_linear_2_3877)"/>
<path d="M47.3 21.6997H17.4C15 21.6997 13 23.6997 13 26.0997V45.1997C13 47.5997 15 49.5997 17.4 49.5997H47.3V21.6997Z" fill="url(#paint17_linear_2_3877)"/>
<path d="M38.7 33.7999L27.7 44.7999L21.6 38.6998V31.2999L27.7 37.3999L38.7 26.3999V33.7999Z" fill="white"/>
<defs>
<linearGradient id="paint0_linear_2_3877" x1="46.2" y1="67.8998" x2="46.2" y2="40.3998" gradientUnits="userSpaceOnUse">
<stop stop-color="#C5A25D"/>
<stop offset="1" stop-color="#897340"/>
</linearGradient>
<linearGradient id="paint1_linear_2_3877" x1="23.7" y1="94.8997" x2="23.7" y2="-43.6003" gradientUnits="userSpaceOnUse">
<stop stop-color="#005363"/>
<stop offset="1" stop-color="#132F57"/>
</linearGradient>
<linearGradient id="paint2_linear_2_3877" x1="10.9" y1="109.8" x2="10.9" y2="-39.2001" gradientUnits="userSpaceOnUse">
<stop stop-color="#005363"/>
<stop offset="1" stop-color="#132F57"/>
</linearGradient>
<linearGradient id="paint3_linear_2_3877" x1="-18.0999" y1="-18" x2="13.9001" y2="13.9999" gradientUnits="userSpaceOnUse">
<stop stop-color="#C5A25D"/>
<stop offset="1" stop-color="#897340"/>
</linearGradient>
<linearGradient id="paint4_linear_2_3877" x1="13" y1="89.1986" x2="13" y2="-5.89927" gradientUnits="userSpaceOnUse">
<stop stop-color="#005363"/>
<stop offset="1" stop-color="#132F57"/>
</linearGradient>
<linearGradient id="paint5_linear_2_3877" x1="29.1" y1="89.1986" x2="29.1" y2="-5.89927" gradientUnits="userSpaceOnUse">
<stop stop-color="#2A3E98"/>
<stop offset="0.6" stop-color="#233064"/>
<stop offset="1" stop-color="#081F2E"/>
</linearGradient>
<linearGradient id="paint6_linear_2_3877" x1="35.5" y1="89.2019" x2="35.5" y2="-5.90128" gradientUnits="userSpaceOnUse">
<stop stop-color="#2A3E98"/>
<stop offset="0.6" stop-color="#233064"/>
<stop offset="1" stop-color="#081F2E"/>
</linearGradient>
<linearGradient id="paint7_linear_2_3877" x1="19.4" y1="89.2019" x2="19.4" y2="-5.90128" gradientUnits="userSpaceOnUse">
<stop stop-color="#005363"/>
<stop offset="1" stop-color="#132F57"/>
</linearGradient>
<linearGradient id="paint8_linear_2_3877" x1="16.2" y1="89.2016" x2="16.2" y2="-5.90157" gradientUnits="userSpaceOnUse">
<stop stop-color="#005363"/>
<stop offset="1" stop-color="#132F57"/>
</linearGradient>
<linearGradient id="paint9_linear_2_3877" x1="32.3" y1="89.2017" x2="32.3" y2="-5.90147" gradientUnits="userSpaceOnUse">
<stop stop-color="#2A3E98"/>
<stop offset="0.6" stop-color="#233064"/>
<stop offset="1" stop-color="#081F2E"/>
</linearGradient>
<linearGradient id="paint10_linear_2_3877" x1="13" y1="84.2986" x2="13" y2="107.198" gradientUnits="userSpaceOnUse">
<stop stop-color="#007473"/>
<stop offset="1" stop-color="#008989"/>
</linearGradient>
<linearGradient id="paint11_linear_2_3877" x1="29.1" y1="84.2987" x2="29.1" y2="107.198" gradientUnits="userSpaceOnUse">
<stop stop-color="#2A3E98"/>
<stop offset="0.6" stop-color="#233064"/>
<stop offset="1" stop-color="#081F2E"/>
</linearGradient>
<linearGradient id="paint12_linear_2_3877" x1="35.5" y1="84.2989" x2="35.5" y2="107.198" gradientUnits="userSpaceOnUse">
<stop stop-color="#2A3E98"/>
<stop offset="0.6" stop-color="#233064"/>
<stop offset="1" stop-color="#081F2E"/>
</linearGradient>
<linearGradient id="paint13_linear_2_3877" x1="19.4" y1="84.2989" x2="19.4" y2="107.198" gradientUnits="userSpaceOnUse">
<stop stop-color="#007473"/>
<stop offset="1" stop-color="#008989"/>
</linearGradient>
<linearGradient id="paint14_linear_2_3877" x1="16.2" y1="84.3012" x2="16.2" y2="107.202" gradientUnits="userSpaceOnUse">
<stop stop-color="#007473"/>
<stop offset="1" stop-color="#008989"/>
</linearGradient>
<linearGradient id="paint15_linear_2_3877" x1="32.3" y1="84.3012" x2="32.3" y2="107.202" gradientUnits="userSpaceOnUse">
<stop stop-color="#2A3E98"/>
<stop offset="0.6" stop-color="#233064"/>
<stop offset="1" stop-color="#081F2E"/>
</linearGradient>
<linearGradient id="paint16_linear_2_3877" x1="34.4" y1="62.1998" x2="34.4" y2="-5.90036" gradientUnits="userSpaceOnUse">
<stop stop-color="#C5A25D"/>
<stop offset="1" stop-color="#897340"/>
</linearGradient>
<linearGradient id="paint17_linear_2_3877" x1="22.2" y1="73.8998" x2="37.6" y2="3.6997" gradientUnits="userSpaceOnUse">
<stop stop-color="#C5A25D"/>
<stop offset="1" stop-color="#897340"/>
</linearGradient>
</defs>
</svg>
